# xmcd
#
# Track frame offsets:
#  182
#  13762
#  24867
#  34780
#  53780
#  70907
#  84682
#  100950
#  124087
#  142442
#
# Disc length: 2151 seconds
#
# Revision: 0
# Processed by: cddbd v1.4b42PL1 Copyright (c) Steve Scherf et al.
# Submitted via: AltoMP3_Maker 3.0
#
DISCID=8908650a
DTITLE=Ben King - Best Of Ben E King
DYEAR=1900
DGENRE=
TTITLE0=Stand By Me
TTITLE1=This Magic Moment
TTITLE2=There Goes My Baby
TTITLE3=Save the Last Dance For Me
TTITLE4=A Lovers Question
TTITLE5=Halfway To Paradise
TTITLE6=Two Lovers
TTITLE7=Because of Last Night
TTITLE8=I Cry For You
TTITLE9=Test of Time
EXTD=
EXTT0=
EXTT1=
EXTT2=
EXTT3=
EXTT4=
EXTT5=
EXTT6=
EXTT7=
EXTT8=
EXTT9=
PLAYORDER=
